<svg width="28" height="28" viewBox="0 0 28 28" fill="none" xmlns="http://www.w3.org/2000/svg">
<g clip-path="url(#clip0_255_904)">
<path d="M20.9298 20.9301C18.9355 22.4503 16.5071 23.2924 13.9998 23.3334C5.83317 23.3334 1.1665 14.0001 1.1665 14.0001C2.61771 11.2956 4.63049 8.93279 7.06984 7.07008M11.5498 4.94675C12.3529 4.75877 13.1751 4.66481 13.9998 4.66675C22.1665 4.66675 26.8332 14.0001 26.8332 14.0001C26.125 15.325 25.2804 16.5723 24.3132 17.7217M16.4732 16.4734C16.1527 16.8173 15.7663 17.0931 15.337 17.2844C14.9077 17.4757 14.4442 17.5785 13.9743 17.5868C13.5043 17.5951 13.0375 17.5087 12.6017 17.3327C12.1659 17.1566 11.77 16.8946 11.4377 16.5623C11.1053 16.2299 10.8433 15.834 10.6673 15.3982C10.4912 14.9624 10.4048 14.4956 10.4131 14.0256C10.4214 13.5557 10.5242 13.0922 10.7155 12.6629C10.9068 12.2336 11.1826 11.8472 11.5265 11.5267M1.1665 1.16675L26.8332 26.8334" stroke="#5A5A5A" stroke-width="2" stroke-linecap="round" stroke-linejoin="round"/>
</g>
<defs>
<clipPath id="clip0_255_904">
<rect width="28" height="28" fill="white"/>
</clipPath>
</defs>
</svg>
